<?xml version="1.0" encoding="UTF-8" standalone="no"?>
<svg
   version="1.1"
   viewBox="0 0 591.36041 456.35797"
   id="svg126"
   width="591.36041"
   height="456.35797"
   xmlns="http://www.w3.org/2000/svg"
   xmlns:svg="http://www.w3.org/2000/svg">
  <defs
     id="defs126" />
  <g
     stroke-width="2"
     fill="none"
     stroke-linecap="butt"
     id="g84"
     transform="translate(-177.54966,-166.32119)">
    <path
       stroke="#8c8c8c"
       vector-effect="non-scaling-stroke"
       d="m 349.67,263.34 q -25.35,-5.98 -50.04,-12.01 c -43.66,-10.65 -84.38,-26.95 -120.7,-52.76 a 0.25,0.25 0 0 0 -0.37,0.3 l 0.97,2.18"
       id="path1" />
    <path
       stroke="#8c8c8c"
       vector-effect="non-scaling-stroke"
       d="m 193.41,221.26 q 19.21,24.45 44.44,38.64 18.45,10.38 42.69,17.73"
       id="path3" />
    <path
       stroke="#0c0c0c"
       vector-effect="non-scaling-stroke"
       d="m 280.54,277.63 q 0.75,1.65 2.26,2.75"
       id="path4" />
    <path
       stroke="#8c8c8c"
       vector-effect="non-scaling-stroke"
       d="m 282.8,280.38 q -26.12,-4.89 -37.39,-8.26 -23.04,-6.89 -29.97,-9.01 a 0.38,0.38 0 0 0 -0.48,0.46 q 0.29,1.18 1.09,2.35 21.58,31.57 58.88,40.17 13.57,3.13 25.53,3.04"
       id="path5" />
    <path
       stroke="#0c0c0c"
       vector-effect="non-scaling-stroke"
       d="m 300.46,309.13 -3.65,0.38 a 0.52,0.51 -10.1 0 0 -0.45,0.64 q 0.18,0.68 1.19,1.06"
       id="path6" />
    <path
       stroke="#8c8c8c"
       vector-effect="non-scaling-stroke"
       d="m 297.55,311.21 -54.4,-1.38 a 0.72,0.72 0 0 0 -0.62,1.11 q 6.04,9.09 15.05,15.21"
       id="path7" />
    <path
       stroke="#0c0c0c"
       vector-effect="non-scaling-stroke"
       d="m 257.58,326.15 q -1.01,0.15 -1.55,0.67 -0.61,0.58 -0.06,1.47 0.77,1.23 1.98,2.12 15.07,10.98 33.38,10.26 8.49,-0.33 17.31,-0.71"
       id="path8" />
    <path
       stroke="#525252"
       vector-effect="non-scaling-stroke"
       d="m 308.64,339.96 -28.93,9.96"
       id="path9" />
    <path
       stroke="#0c0c0c"
       vector-effect="non-scaling-stroke"
       d="m 279.71,349.92 -0.12,1 a 1,0.97 -65.9 0 0 0.3,0.82 q 11.92,11.43 28.36,13.21 c 5.51,0.59 9.23,-0.77 14.08,-2.02"
       id="path10" />
    <path
       stroke="#525252"
       vector-effect="non-scaling-stroke"
       d="m 322.33,362.93 -8.17,10.19"
       id="path11" />
    <path
       stroke="#0c0c0c"
       vector-effect="non-scaling-stroke"
       d="m 314.16,373.12 q -3.38,1.85 -5.42,3.62 -1.68,1.47 0,3"
       id="path12" />
    <path
       stroke="#8c8c8c"
       vector-effect="non-scaling-stroke"
       d="m 308.74,379.74 q -7.74,9.71 -16.32,18.67 -1.96,2.04 -2.8,4.47 -5.61,16.19 -10.58,31.9 c -4.2,13.3 -6.5,21.04 -6.89,32.88 -0.49,14.52 0.24,30.53 0.65,39.34 q 0.03,0.54 0,12.51 a 3.73,3.51 -36.2 0 1 -0.24,1.29 l -1.71,4.44"
       id="path13" />
    <path
       stroke="#0c0c0c"
       vector-effect="non-scaling-stroke"
       d="m 270.85,525.24 q -7.15,7.07 -5.94,18.01 1.37,12.48 1.56,18.8 a 0.61,0.61 0 0 0 1.17,0.23 l 2.06,-4.71 a 3.89,3.74 -9.3 0 1 1.02,-1.36 l 1.97,-1.68 a 2.16,2.12 -10.9 0 0 0.62,-0.9 q 0.72,-2.02 0.76,-5.07 a 1.44,1.2 -70.4 0 1 2.11,-1.24 q 0.29,0.29 0.86,-0.22 a 1.32,1.31 77.9 0 0 0.42,-0.65 q 1.72,-6 1.97,-7.99 1.03,-8.32 -4.05,-15.62"
       id="path14" />
    <path
       stroke="#8c8c8c"
       vector-effect="non-scaling-stroke"
       d="m 275.38,522.84 q -0.75,-2.58 -0.58,-5.84 0.49,-9.64 1.12,-19.1 c 0.67,-10.16 2.08,-18.4 4.18,-27.3 q 0.06,-0.25 4.09,-14.78 a 0.34,0.34 0 0 1 0.67,0.04 l 0.93,6.79"
       id="path15" />
    <path
       stroke="#0c0c0c"
       vector-effect="non-scaling-stroke"
       d="m 285.79,462.65 q -0.28,15.91 2.18,31.23 0.89,5.58 3.02,17.69 c 1.35,7.63 3.58,13.67 6.26,21.76 1.11,3.35 1.6,7.28 2.14,9.89 q 0.58,2.73 0.26,7.57 c -0.99,14.95 -2.52,29.39 -4.12,45.98 q -0.7,7.27 -2.18,16.46 -0.2,1.25 -0.25,4.04 a 1.34,1.34 0 0 0 1.37,1.37 q 8.05,-0.19 14.58,1.26 c 12.26,2.71 25.74,1.92 37.94,0.28 a 1.39,1.39 0 0 0 1.2,-1.21 q 0.87,-7.07 -2.9,-12.23 -3.87,-5.3 -5.46,-7.09 a 1.59,1.59 0 0 1 -0.31,-1.61 q 2.38,-6.34 4.93,-14.77 0.78,-2.58 4.28,-8.04 c 2.54,-3.97 8.25,-6.66 11.5,-9.86 a 0.39,0.39 0 0 1 0.65,0.19 c 1.57,6.84 1.84,14.03 1.4,21.94 q -0.77,13.81 -0.77,27.24 0,2.96 2.71,3.04 23.43,0.69 46.99,-0.46 a 0.75,0.75 0 0 0 0.72,-0.8 c -0.44,-7.28 -6.23,-13 -9.88,-18.18 a 5.54,5.46 -71.1 0 1 -0.8,-1.66 q -0.48,-1.61 -0.47,-5.43 0.11,-24.51 -0.16,-33.94 c -0.13,-4.63 0.34,-9.2 0.81,-13.11 a 1.76,1.76 0 0 1 1.54,-1.53 q 11.54,-1.38 20.73,-3.66 5.3,-1.32 24.35,-8.95 a 11.36,10.96 29.9 0 1 2.87,-0.72 c 4.4,-0.49 6.77,-0.94 9.69,-4.51 a 0.59,0.57 -52.4 0 1 0.79,-0.11 q 2.47,1.78 3.24,5.23 2.87,12.82 7.88,22.79 a 3.49,3.44 -55.3 0 1 0.34,1.95 c -0.8,6.75 -1.69,17.19 -3.53,26.01 q -1.56,7.44 -3.42,17.01 c -0.59,3.03 -0.65,5.42 -1.53,7.94 -1.27,3.66 -1.72,9.5 -2.26,12.26 a 0.42,0.42 0 0 0 0.34,0.5 l 15.45,2.63 a 4.32,3.99 47.3 0 0 0.86,0.07 l 35.57,-0.26 a 2.07,2.06 -88.5 0 0 2.05,-1.95 c 0.29,-4.98 -1.58,-9.03 -4.24,-14.03 -2.45,-4.58 -1.28,-8.25 0.42,-14.05 1.83,-6.28 5.12,-10.82 12.16,-11.42 a 2.17,2.17 0 0 1 2.31,1.67 q 0.58,2.42 0.4,6.69 -0.49,11.82 -3.06,24.64 -0.23,1.17 -0.3,4.87 a 0.79,0.79 0 0 0 0.79,0.81 h 49.34 a 0.61,0.61 0 0 0 0.61,-0.6 c 0.2,-10.16 -10.25,-16.49 -10.69,-24.57 -0.53,-9.91 1.23,-22.87 0.47,-32.88 q -0.86,-11.56 -1.33,-14.55 c -1.99,-12.78 -2.37,-23.64 -4.02,-36.85 a 2.34,2.34 0 0 1 0,-0.68 q 0.26,-1.83 0.17,-2.64 -1.5,-13.7 -2.03,-26.82 -0.22,-5.59 2.28,-8.08 9.58,-9.55 19.15,-19.24"
       id="path16" />
    <path
       stroke="#8c8c8c"
       vector-effect="non-scaling-stroke"
       d="m 578.82,451.17 q 2.69,1.22 5.78,1.54"
       id="path17" />
    <path
       stroke="#0c0c0c"
       vector-effect="non-scaling-stroke"
       d="m 584.6,452.71 c 6.8,2.55 14.25,3.07 21.5,4.39 q 4.2,0.76 7.33,2.66 9.31,5.63 19.12,9.91 a 0.75,0.75 0 0 0 0.88,-1.15 q -0.58,-0.73 -0.98,-2.01 a 0.5,0.5 0 0 1 0.51,-0.65 c 4.74,0.3 6.42,1.26 9.6,5.06 8.19,9.79 17.08,15.15 29.89,23.06 q 3.01,1.85 5.37,2.06 8.13,0.72 15.82,2.92 c 6.09,1.74 10.96,1.77 17.51,1.3 3.86,-0.28 6.43,0.24 10.53,0.41 9.62,0.39 16.58,-3.78 26.16,-8.86 q 5.86,-3.1 8.92,-8.1"
       id="path18" />
    <path
       stroke="#8c8c8c"
       vector-effect="non-scaling-stroke"
       d="m 756.76,483.71 q 0.58,-0.41 0.78,-0.82 a 0.41,0.41 0 0 0 -0.35,-0.6 q -1,-0.06 -2.13,0.47"
       id="path19" />
    <path
       stroke="#0c0c0c"
       vector-effect="non-scaling-stroke"
       d="m 755.06,482.76 q -3.62,-0.92 -5.56,-0.53 -12.62,2.54 -25.23,3.03 a 0.67,0.66 89.1 0 0 -0.64,0.67 v 0.3 a 0.4,0.4 0 0 0 0.39,0.4 l 6.78,0.22"
       id="path20" />
    <path
       stroke="#8c8c8c"
       vector-effect="non-scaling-stroke"
       d="m 730.8,486.85 c -18.38,1 -38.13,-2.84 -53.56,-13.26"
       id="path21" />
    <path
       stroke="#0c0c0c"
       vector-effect="non-scaling-stroke"
       d="m 677.24,473.59 q 0.63,0.15 1.12,0.11 a 0.62,0.61 88.5 0 0 0.57,-0.61 c 0.06,-2.56 2,-2.47 3.97,-1.93 6.06,1.67 10.14,2.44 15.79,1.86 q 7.07,-0.73 14.6,-2.7 14.19,-3.72 24.73,-8.03 4.59,-1.88 6.82,-5.48 c 6.38,-10.33 13.23,-20.71 19.18,-32.35 q 0.6,-1.19 1.33,-4.46"
       id="path22" />
    <path
       stroke="#8c8c8c"
       vector-effect="non-scaling-stroke"
       d="m 765.35,420 q 0.85,-3.12 0.65,-6.73"
       id="path23" />
    <path
       stroke="#0c0c0c"
       vector-effect="non-scaling-stroke"
       d="m 766,413.27 0.93,3.03 a 0.47,0.46 36.2 0 0 0.91,-0.14 c -0.12,-8.92 0.57,-15.96 -0.83,-23.51 -1.3,-6.93 -2.02,-12.1 -4.76,-16.64 q -3.08,-5.06 -11.05,-16.91 -3.44,-5.12 -4.78,-8.05 -2.58,-5.65 -4.11,-8.52 c -3.28,-6.15 -5.72,-15.42 -7.98,-22.84 q -0.55,-1.81 -2.53,-4.17"
       id="path24" />
    <path
       stroke="#8c8c8c"
       vector-effect="non-scaling-stroke"
       d="m 731.8,315.52 -0.65,-4.4"
       id="path25" />
    <path
       stroke="#0c0c0c"
       vector-effect="non-scaling-stroke"
       d="m 731.15,311.12 q 3,-12.98 14.74,-19.72 1.26,-0.72 8.53,-3.46 1.34,-0.5 4.53,-3.17 a 1.5,1.48 -16.9 0 0 0.52,-0.96 c 1.01,-8.57 -6.08,-7.98 -8.66,-12.95 q -2.53,-4.89 -3.8,-7.38 c -4.28,-8.41 -11.65,0.29 -15.09,3.69 q -14.82,14.67 -22.73,24.94 a 2.22,2.18 -18 0 0 -0.38,0.73 q -1.6,5.53 -3.39,11.27 c -2.02,6.49 -1.59,10.96 -1.01,18.15 0.52,6.46 2.38,12.85 3.02,18.45 a 1.2,1.2 0 0 0 0.48,0.83 q 3.16,2.32 4.08,3.73 7.66,11.79 12.62,25.09 3.37,9.04 3.89,13.73 0.71,6.49 -0.78,19.77 c -0.2,1.79 -1.13,4.72 -2.26,5.83 q -4.51,4.42 -6.66,6.92 c -1.44,1.69 -3.95,3.12 -5.77,3.15 -7.97,0.13 -11.58,-0.24 -17.43,2.24 a 0.2,0.2 0 0 1 -0.26,-0.1 c -2.49,-5.64 -3.55,-12.17 -5.66,-18.09 q -5.22,-14.68 -11.5,-34.35 c -1.74,-5.47 -6.33,-11.7 -11.49,-16.72 q -2.24,-2.18 -3.85,-4.08 -7.65,-9.07 -13.82,-16.27 -0.14,-0.17 -3.94,-5.3 -3.34,-4.51 -7.95,-6.15"
       id="path26" />
    <path
       stroke="#8c8c8c"
       vector-effect="non-scaling-stroke"
       d="m 637.13,320.94 q -3.3,-3.78 -6.94,-8.39 c -3.24,-4.11 -8.97,-6.01 -15.72,-9.29 q -2.54,-1.23 -5.16,-0.93 -19.96,2.31 -42.74,5.14 a 1.02,1.02 0 0 1 -1.05,-0.59 c -1.38,-2.98 -5.21,-8.96 -8.29,-9.87 q -4.9,-1.43 -22.55,-4.09 -17.28,-2.61 -45.86,-5.68 a 1.85,1.81 28.8 0 0 -1.32,0.37 l -15.19,11.59"
       id="path27" />
    <path
       stroke="#0c0c0c"
       vector-effect="non-scaling-stroke"
       d="m 472.31,299.2 -0.9,-2.94"
       id="path28" />
    <path
       stroke="#8c8c8c"
       vector-effect="non-scaling-stroke"
       d="m 471.41,296.26 q -1.66,-9.55 -5.74,-18.24 c -3.8,-8.08 -11.33,-14.19 -18.9,-19.02 q -19.44,-12.39 -41.89,-22.24 c -3.89,-1.71 -7.94,-3.88 -11.87,-5.85"
       id="path29" />
    <path
       stroke="#525252"
       vector-effect="non-scaling-stroke"
       d="M 393.01,230.91 Q 360.92,214.96 332,193.75 q -7.68,-5.64 -22.97,-19.27"
       id="path30" />
    <path
       stroke="#0c0c0c"
       vector-effect="non-scaling-stroke"
       d="m 309.03,174.48 -6.56,-7.05 a 0.43,0.43 0 0 0 -0.71,0.44 q 4.73,12.67 11.52,25.16 c 14.52,26.69 38.12,44.74 64.35,59.5 a 0.36,0.36 0 0 1 -0.17,0.67 q -0.16,0.01 -0.49,-0.14 c -5.95,-2.58 -13.77,-5.34 -19.83,-8.34 q -7.46,-3.7 -22,-10.88 -3.55,-1.76 -6.91,-3.95 a 0.62,0.61 23.1 0 0 -0.93,0.37 q -0.16,0.67 0.06,1.12 2.11,4.28 3.18,6.82 c 1.87,4.46 5,8.18 7.9,11.94 q 0.85,1.1 4.76,4.69 4.1,3.76 6.47,8.51"
       id="path31" />
    <path
       stroke="#464646"
       vector-effect="non-scaling-stroke"
       d="m 309.03,174.48 q 28.55,26.94 62.94,46.05 10.12,5.62 20.44,10.85"
       id="path32" />
    <path
       stroke="#808080"
       vector-effect="non-scaling-stroke"
       d="m 392.41,231.38 c 19.62,10.61 41.92,20.97 60.44,35.26 q 8.72,6.73 12.64,14.88 1.43,2.99 5.92,14.74"
       id="path33" />
    <path
       stroke="#808080"
       vector-effect="non-scaling-stroke"
       d="m 472.31,299.2 q -10.84,10.19 -17.18,17.68 -2.34,2.76 -29.61,36.05 c -6.12,7.48 -10.51,13.47 -3.39,21.41 q 2.43,2.7 3.7,3.59 c 6.59,4.67 10.81,7.02 14.5,12 5.76,7.78 10.04,17.11 18.8,22.71 q 7.98,5.1 15.73,9.99 2.35,1.49 4.59,3.74 c 6.04,6.07 11.03,11.47 17.54,16.75 q 17.56,14.23 37.58,23.68 c 2.03,0.96 5.43,2.17 7.61,2.75 a 1.86,1.85 -74 0 0 2.24,-1.25 q 0.81,-2.65 1.1,-4.79 1.01,-7.41 5.67,-33.26 0.78,-4.31 1.55,-11.46 0.97,-8.97 0.82,-11.52 -0.55,-9.3 -2.61,-18.22 -2.76,-11.96 -2.87,-14.71 -0.3,-7.84 0.63,-15.01 a 2.83,2.8 32.9 0 0 -0.41,-1.86 c -3.48,-5.58 -7.54,-10.67 -12.71,-15.72 q -11.1,-10.86 -17.77,-18.24 -2.93,-3.25 -6.87,-4.5 -13.16,-4.15 -27.11,-4.25 a 0.36,0.36 0 0 1 -0.14,-0.69 q 14.93,-6.48 30.31,-2.97 a 8.43,8.2 64.2 0 1 1.92,0.7 c 6.12,3.08 12.83,7.65 17.79,11.24 q 24.13,17.42 32.55,23.68 1.32,0.98 2.56,2.05 a 0.74,0.74 0 0 1 0.12,0.98 c -5.04,7.14 -9.91,14.63 -12.95,22.41 a 3.17,3.14 -52.9 0 0 0.41,3.04 q 12.54,16.76 30.95,39.95 4.06,5.11 7.21,7.87 3.89,3.4 9.65,2.04 9.65,-2.29 17.96,-5.4 a 0.34,0.33 -12.8 0 1 0.45,0.28 q 2.16,20.84 10.09,39.82 1,2.4 1.84,3.7 a 2.44,2.44 0 0 0 2.96,0.94 c 9.76,-3.94 17.48,-7.52 27.79,-4.89 q 11.37,2.9 25.67,4.02 6.61,0.51 11.5,-0.65 c 11.87,-2.82 23.51,-7.65 35.23,-12.4 q 3.88,-1.58 5.65,-3.88 7.29,-9.51 15.05,-21.64 c 3.27,-5.12 4.69,-8.96 5.76,-14.16 a 0.24046829,0.24046829 0 0 1 0.48,0.03 l 0.7,9.17"
       id="path34" />
    <path
       stroke="#808080"
       vector-effect="non-scaling-stroke"
       d="m 677.24,473.59 q -4.33,-3.45 -7.88,-7.76 c -1.65,-1.99 -2.48,-2.02 -4.86,-2.05 q -10.68,-0.15 -20.93,4.05 a 0.45,0.44 -31.9 0 0 -0.17,0.7 q 9.5,10.65 21.52,17.88 c 8.75,5.26 19.08,8.09 28.77,10.09 16.62,3.43 34.74,1.58 49.85,-4.96 q 5.53,-2.39 13.22,-7.83"
       id="path35" />
    <path
       stroke="#808080"
       vector-effect="non-scaling-stroke"
       d="m 584.6,452.71 q -1.31,-0.86 -4.32,-2.24 -8.31,-3.82 -13.93,-13.32 c -5.26,-8.9 -6.97,-20.06 -8.15,-28.97 a 0.23,0.23 0 0 0 -0.25,-0.2 h -0.01 a 0.24,0.23 -3.8 0 0 -0.22,0.24 c 0.49,16.56 5.43,34.27 21.1,42.95"
       id="path36" />
    <path
       stroke="#808080"
       vector-effect="non-scaling-stroke"
       d="m 285.79,462.65 q 6.04,10.77 10.99,21.32 12.38,26.39 24.87,53.17 5.9,12.65 6.72,25.1 0.37,5.75 -0.46,8.65 -6.72,23.57 -15.64,46.88 a 0.45,0.45 0 0 0 0.42,0.61 h 33.14 a 0.6,0.6 0 0 0 0.6,-0.63 l -0.23,-5.61 a 1.65,1.6 -65.8 0 0 -0.34,-0.94 l -8.38,-10.88 a 1.92,1.91 33.5 0 1 -0.34,-1.64 l 5.15,-20.11 a 4.2,4.17 -13.1 0 1 1.34,-2.14 q 16.56,-13.93 32.71,-28.34 4.06,-3.63 5.68,-6.32 c 6.04,-10.09 8.87,-24.26 4.86,-35.99 q -4.98,-14.56 -14.43,-28.67 a 0.38,0.37 -12.6 0 1 0.37,-0.58 q 18.55,2.8 39.71,2.2 8.86,-0.25 18.45,-5.72 c 13.24,-7.55 24.17,-15.1 30.54,-26.73 a 0.9,0.89 25.9 0 0 -0.44,-1.25 Q 437.69,435 425.2,412.73"
       id="path37" />
    <path
       stroke="#464646"
       vector-effect="non-scaling-stroke"
       d="m 425.2,412.73 -2.81,-5.75 a 0.78,0.78 0 0 0 -1.15,-0.29 q -8.89,6.4 -19.77,6.17"
       id="path38" />
    <path
       stroke="#808080"
       vector-effect="non-scaling-stroke"
       d="m 401.47,412.86 -2.86,-0.26 a 0.57,0.57 0 0 1 -0.45,-0.85 l 4.44,-7.92"
       id="path39" />
    <path
       stroke="#464646"
       vector-effect="non-scaling-stroke"
       d="m 402.6,403.83 3.91,-6.49 a 0.22,0.22 0 0 0 -0.32,-0.28 c -9.41,7.65 -19.32,13.54 -32.01,11.06"
       id="path40" />
    <path
       stroke="#808080"
       vector-effect="non-scaling-stroke"
       d="m 374.18,408.12 -4.67,-0.97"
       id="path41" />
    <path
       stroke="#464646"
       vector-effect="non-scaling-stroke"
       d="m 369.51,407.15 q 6.61,-10.31 14.77,-18.87 2.35,-2.47 7.08,-7.56 a 0.06,0.05 -50.7 0 0 0,-0.08 q -0.01,-0.01 -0.04,-0.02 a 0.15,0.14 -52.2 0 0 -0.17,0.03 q -4.68,4.54 -15.09,12.42 -13.89,10.52 -30.54,5.59"
       id="path42" />
    <path
       stroke="#808080"
       vector-effect="non-scaling-stroke"
       d="m 345.52,398.66 -5.38,-2.67 a 0.67,0.66 -53.6 0 1 -0.16,-1.08 l 9.98,-9.49"
       id="path43" />
    <path
       stroke="#464646"
       vector-effect="non-scaling-stroke"
       d="m 349.96,385.42 q 9.72,-8.53 20.61,-15.96 a 0.04,0.03 -40.5 0 0 0.02,-0.06 q -0.04,-0.01 -0.08,-0.02 a 0.58,0.37 22.4 0 0 -0.33,0.06 c -8.92,5.43 -17.89,10.72 -27.32,14.38 -8.58,3.32 -19.04,1.22 -27.16,-3.02"
       id="path44" />
    <path
       stroke="#808080"
       vector-effect="non-scaling-stroke"
       d="m 315.7,380.8 -4.99,-2.99 a 0.54,0.54 0 0 0 -0.72,0.15 l -1.25,1.78"
       id="path45" />
    <path
       stroke="#464646"
       vector-effect="non-scaling-stroke"
       d="m 314.16,373.12 c 6.23,-3.36 12.98,-7.67 18.22,-10.37 q 26.06,-13.44 29.12,-14.02 a 0.17,0.17 0 0 0 0.11,-0.27 l -0.16,-0.21 a 0.19,0.18 -31.5 0 0 -0.23,-0.05 q -18.8,9.12 -38.89,14.73"
       id="path46" />
    <path
       stroke="#464646"
       vector-effect="non-scaling-stroke"
       d="m 279.71,349.92 q 18.5,-5.12 36.48,-11.82 a 0.17,0.16 72.1 0 0 0.1,-0.21 0.16,0.16 0 0 0 -0.2,-0.11 l -7.45,2.18"
       id="path47" />
    <path
       stroke="#808080"
       vector-effect="non-scaling-stroke"
       d="m 257.58,326.15 c 8.52,6.03 19.37,11.27 29.41,12.3 q 7.9,0.8 16.01,-0.02 11,-1.13 15.11,-2.15 15.74,-3.92 35.42,-8.16 a 1,0.98 1.3 0 0 0.74,-0.69 q 0.25,-0.9 0.18,-2.13 a 1.25,1.23 68.5 0 1 0.44,-1.03 q 1.03,-0.87 3.05,-1.63 a 0.56,0.56 0 0 0 0.04,-1.03 c -5.31,-2.38 -9.21,-4.16 -11.02,-10.29 a 0.79,0.79 0 0 0 -0.8,-0.57 q -24.37,1.08 -48.61,0.46"
       id="path48" />
    <path
       stroke="#808080"
       vector-effect="non-scaling-stroke"
       d="m 300.46,309.13 q 22.43,0.55 45.78,-0.75 a 0.67,0.66 -84.5 0 0 0.6,-0.5 l 0.3,-1.19 a 1.22,1.22 0 0 1 0.83,-0.87 l 2.83,-0.89 a 0.42,0.42 0 0 0 0.09,-0.76 q -7.53,-4.48 -11.03,-12.76 a 1.04,1.03 -7.6 0 0 -0.81,-0.61 q -28.46,-3.75 -56.25,-10.42"
       id="path49" />
    <path
       stroke="#808080"
       vector-effect="non-scaling-stroke"
       d="m 280.54,277.63 q 4.98,1.65 7.23,2.1 24.94,5.07 50.85,9.11 a 0.42,0.42 0 0 0 0.45,-0.58 q -0.45,-1.06 -0.51,-1.95 a 0.64,0.64 0 0 1 0.77,-0.66 q 9.36,2.04 19.48,1.36 a 0.35,0.35 0 0 0 0.15,-0.66 q -20.22,-11.08 -38.12,-21.29 c -6.05,-3.46 -14.68,-9.07 -18.96,-11.78 a 0.19,0.19 0 0 1 0.16,-0.34 q 23.28,6.82 47.19,13.34 14.09,3.85 26.32,8.17 c 13.35,4.73 26.2,10.91 34.63,23.1 q 3.99,5.76 5.19,8.09 7.93,15.39 17.49,28.55 a 0.02061553,0.02061553 0 0 0 0.04,-0.01 q 0,-0.03 0.01,-0.05 a 0.37,0.16 46.5 0 0 -0.07,-0.19 q -8.81,-14.36 -18.15,-32.87 c -8.78,-17.39 -23.92,-25.41 -41.75,-31.01 q -10.22,-3.22 -23.27,-6.72"
       id="path50" />
    <path
       stroke="#c5c5c5"
       vector-effect="non-scaling-stroke"
       d="m 393.01,230.91 q -0.33,0.08 -0.6,0.47"
       id="path51" />
    <path
       stroke="#808080"
       vector-effect="non-scaling-stroke"
       d="m 731.8,315.52 c 2.99,21.9 14.55,39.33 26.72,59.88 2.47,4.18 2.97,6.7 4.01,12.06 q 2.84,14.76 3.47,25.81"
       id="path52" />
    <path
       stroke="#808080"
       vector-effect="non-scaling-stroke"
       d="m 730.8,486.85 q 12.38,-0.38 24.26,-4.09"
       id="path54" />
    <path
       stroke="#808080"
       vector-effect="non-scaling-stroke"
       d="M 193.41,221.26 179.53,201.05"
       id="path55" />
    <path
       stroke="#c5c5c5"
       vector-effect="non-scaling-stroke"
       d="m 345.52,398.66 -2.09,4.86 a 0.65,0.65 0 0 0 0.29,0.83 q 9.84,5.05 21.12,2.17 a 0.25,0.25 0 0 1 0.3,0.18 l 0.02,0.06 a 0.29,0.28 -14.3 0 1 -0.21,0.34 q -6.22,1.58 -12.61,0.99 a 0.15,0.15 0 0 0 -0.16,0.14 v 0.01 a 0.14,0.14 0 0 0 0.13,0.15 c 3.57,0.13 7.05,0.31 10.67,-0.19 q 3.74,-0.53 6.53,-1.05"
       id="path56" />
    <path
       stroke="#808080"
       vector-effect="non-scaling-stroke"
       d="m 275.38,522.84 q -1.41,-0.79 -4.53,2.4"
       id="path59" />
    <path
       stroke="#808080"
       vector-effect="non-scaling-stroke"
       d="m 731.15,311.12 c -1.56,3.05 -1.06,8.61 -0.75,12.2 a 0.37,0.37 0 0 1 -0.72,0.14 l -4.1,-14.27 a 1.53,1.4 42.4 0 1 -0.05,-0.56 q 0.88,-9.74 6.52,-15.75 2.73,-2.91 10.3,-8.19 a 1.18,1.16 31.8 0 1 0.84,-0.19 l 8.93,1.53 a 0.29,0.29 0 0 1 0.24,0.34 l -0.04,0.27 a 0.23,0.22 1.5 0 1 -0.2,0.18 l -1.71,0.21 a 0.28004464,0.28004464 0 0 0 -0.01,0.56 q 1.11,0.18 2.63,-0.14 a 1.74,1.69 16.6 0 0 0.86,-0.45 c 1.63,-1.58 7.2,-6.13 2.96,-8.6 q -4.36,-2.54 -5.72,-3.51 c -3.16,-2.27 -3.88,-5.21 -5.02,-9.46 -1.03,-3.86 -3.66,-5.49 -7.21,-2.3 q -8,7.19 -10.19,9.58 -7.2,7.85 -15.78,17.71 -1.98,2.28 -2.51,4.53 -1.97,8.43 -3.56,13.97 c -0.97,3.37 -0.72,5.53 -0.43,9.58 q 0.78,10.67 2.31,18.3 0.4,2.01 1.44,3.58 a 0.38,0.38 0 0 0 0.68,-0.3 l -1.89,-7.5 a 0.39,0.39 0 0 1 0.7,-0.31 q 3.25,4.95 8.06,10.74 c 4.53,5.46 8.29,12.52 11.24,20.71 2.72,7.56 4.99,13.81 7.97,20.16 a 4.01,3.92 34.3 0 1 0.37,1.84 q -0.04,0.88 -0.55,16.28 -0.24,7.17 2.77,13.28 a 0.29,0.29 0 0 1 -0.39,0.38 L 728.31,410 a 0.5,0.5 0 0 0 -0.56,0.06 l -7.47,6.37 a 1.13,1.12 -27.7 0 0 -0.36,1.14 l 3.99,15.85 a 0.51,0.51 0 0 1 -0.88,0.46 l -9.92,-11.64 a 1.29,1.28 -21 0 0 -1.02,-0.45 l -13.21,0.55 a 0.72,0.71 87.6 0 0 -0.68,0.75 l 0.68,16.47 a 0.29,0.29 0 0 1 -0.56,0.13 q -2.44,-5.43 -4.42,-11.86 -7.5,-24.32 -15.49,-49.42 c -1.36,-4.27 -2.49,-8.86 -3.84,-13.18 a 4.63,4.61 14.3 0 0 -1.1,-1.84 q -13.72,-13.96 -26,-28.36 -3.06,-3.61 -10.34,-14.09"
       id="path60" />
    <path
       stroke="#808080"
       vector-effect="non-scaling-stroke"
       d="m 543.91,482.48 q -3.63,-0.66 -8.6,-2.81 -16.71,-7.19 -33.01,-18.51 -19.53,-13.57 -19.91,-13.8 -3.82,-2.35 -5.19,-3 a 1.19,1.19 0 0 0 -1.07,0.02 q -3.37,1.81 -5.21,5.33 a 1.91,1.9 -32.7 0 0 -0.22,1 q 0.68,15.69 -0.71,26.29 -3.01,22.94 -4.68,38.27 -0.06,0.5 -0.21,4.59 a 6.55,6.48 -52.3 0 0 0.24,1.96 q 1.61,5.66 4.13,14.47 1.73,6.08 5.05,13.03 4.75,9.96 10.17,22.74 a 4.07,4.03 40.9 0 1 0.2,2.62 l -11.04,43.16 a 0.57,0.57 0 0 0 0.55,0.71 h 39.37 a 0.81,0.81 0 0 0 0.81,-0.75 c 0.45,-5.35 -4.44,-12.1 -7.72,-16.98 q -1.1,-1.65 -0.43,-3.62 9.13,-26.58 10.37,-30.77 0.46,-1.55 4.47,-11 1.74,-4.1 3.94,-11.2 12.3,-39.84 17.01,-57.36 c 0.37,-1.38 1.99,-3.03 2.14,-3.71 a 0.57,0.57 0 0 0 -0.45,-0.68"
       id="path79" />
    <path
       stroke="#808080"
       vector-effect="non-scaling-stroke"
       d="m 742.87,268.58 a 0.71,0.71 0 0 0 -1.19,-0.24 c -1.71,1.84 -4.39,5.74 -2.26,8.03 q 3.72,4.01 9.26,5.19 a 1.5,1.5 0 0 0 1.27,-2.62 c -2.44,-2.03 -4.55,-2.63 -6.21,-6.07 -0.59,-1.23 -0.46,-3.19 -0.87,-4.29"
       id="path80" />
    <path
       stroke="#808080"
       vector-effect="non-scaling-stroke"
       d="m 636.77,389.51 -3.3,-10.56 a 1.58,1.47 -77.7 0 0 -0.35,-0.59 c -6.24,-6.59 -12.69,-2.74 -18.97,1 a 0.34,0.34 0 0 0 0.01,0.59 q 1.65,0.95 3.89,2.98 c 4.23,3.82 10.17,4.44 15.37,5.45 a 5.13,5.13 0 0 1 1.83,0.76 l 1.07,0.71 a 0.3,0.3 0 0 0 0.45,-0.34"
       id="path81" />
    <path
       stroke="#c5c5c5"
       vector-effect="non-scaling-stroke"
       d="m 359.9391,407.2657 a 3.04,0.22 -1.4 0 0 -3.0445,-0.1456 3.04,0.22 -1.4 0 0 -3.0337,0.2942 3.04,0.22 -1.4 0 0 3.0445,0.1456 3.04,0.22 -1.4 0 0 3.0337,-0.2942"
       id="path82" />
  </g>
  <path
     fill="#000000"
     d="m 131.48034,8.1588054 q 28.55,26.9399996 62.94,46.0499996 10.12,5.62 20.44,10.85 c 19.62,10.61 41.92,20.97 60.44,35.260005 q 8.72,6.73 12.64,14.88 1.43,2.99 5.92,14.74 l 0.9,2.94 q -10.84,10.19 -17.18,17.68 -2.34,2.76 -29.61,36.05 c -6.12,7.48 -10.51,13.47 -3.39,21.41 q 2.43,2.7 3.7,3.59 c 6.59,4.67 10.81,7.02 14.5,12 5.76,7.78 10.04,17.11 18.8,22.71 q 7.98,5.1 15.73,9.99 2.35,1.49 4.59,3.74 c 6.04,6.07 11.03,11.47 17.54,16.75 q 17.56,14.23 37.58,23.68 c 2.03,0.96 5.43,2.17 7.61,2.75 a 1.85,1.86 16 0 0 2.24,-1.25 q 0.81,-2.65 1.1,-4.79 1.01,-7.41 5.67,-33.26 0.78,-4.31 1.55,-11.46 0.97,-8.97 0.82,-11.52 -0.55,-9.3 -2.61,-18.22 -2.76,-11.96 -2.87,-14.71 -0.3,-7.84 0.63,-15.01 a 2.83,2.8 32.9 0 0 -0.41,-1.86 c -3.48,-5.58 -7.54,-10.67 -12.71,-15.72 q -11.1,-10.86 -17.77,-18.24 -2.93,-3.25 -6.87,-4.5 -13.16,-4.15 -27.11,-4.25 a 0.36,0.36 0 0 1 -0.14,-0.69 q 14.93,-6.48 30.31,-2.97 a 8.43,8.2 64.2 0 1 1.92,0.7 c 6.12,3.08 12.83,7.65 17.79,11.24 q 24.13,17.42 32.55,23.68 1.32,0.98 2.56,2.05 a 0.74,0.74 0 0 1 0.12,0.98 c -5.04,7.14 -9.91,14.63 -12.95,22.41 a 3.14,3.17 37.1 0 0 0.41,3.04 q 12.54,16.76 30.95,39.95 4.06,5.11 7.21,7.87 3.89,3.4 9.65,2.04 9.65,-2.29 17.96,-5.4 a 0.33,0.34 77.2 0 1 0.45,0.28 q 2.16,20.84 10.09,39.82 1,2.4 1.84,3.7 a 2.44,2.44 0 0 0 2.96,0.94 c 9.76,-3.94 17.48,-7.52 27.79,-4.89 q 11.37,2.9 25.67,4.02 6.61,0.51 11.5,-0.65 c 11.87,-2.82 23.51,-7.65 35.23,-12.4 q 3.88,-1.58 5.65,-3.88 7.29,-9.51 15.05,-21.64 c 3.27,-5.12 4.69,-8.96 5.76,-14.16 a 0.24046829,0.24046829 0 0 1 0.48,0.03 l 0.7,9.17 q -0.73,3.27 -1.33,4.46 c -5.95,11.64 -12.8,22.02 -19.18,32.35 q -2.23,3.6 -6.82,5.48 -10.54,4.31 -24.73,8.03 -7.53,1.97 -14.6,2.7 c -5.65,0.58 -9.73,-0.19 -15.79,-1.86 -1.97,-0.54 -3.91,-0.63 -3.97,1.93 a 0.62,0.61 88.5 0 1 -0.57,0.61 q -0.49,0.04 -1.12,-0.11 -4.33,-3.45 -7.88,-7.76 c -1.65,-1.99 -2.48,-2.02 -4.86,-2.05 q -10.68,-0.15 -20.93,4.05 a 0.44,0.45 58.1 0 0 -0.17,0.7 q 9.5,10.65 21.52,17.88 c 8.75,5.26 19.08,8.09 28.77,10.09 16.62,3.43 34.74,1.58 49.85,-4.96 q 5.53,-2.39 13.22,-7.83 -3.06,5 -8.92,8.1 c -9.58,5.08 -16.54,9.25 -26.16,8.86 -4.1,-0.17 -6.67,-0.69 -10.53,-0.41 -6.55,0.47 -11.42,0.44 -17.51,-1.3 q -7.69,-2.2 -15.82,-2.92 -2.36,-0.21 -5.37,-2.06 c -12.81,-7.91 -21.7,-13.27 -29.89,-23.06 -3.18,-3.8 -4.86,-4.76 -9.6,-5.06 a 0.5,0.5 0 0 0 -0.51,0.65 q 0.4,1.28 0.98,2.01 a 0.75,0.75 0 0 1 -0.88,1.15 q -9.81,-4.28 -19.12,-9.91 -3.13,-1.9 -7.33,-2.66 c -7.25,-1.32 -14.7,-1.84 -21.5,-4.39 q -1.31,-0.86 -4.32,-2.24 -8.31,-3.82 -13.93,-13.32 c -5.26,-8.9 -6.97,-20.06 -8.15,-28.97 a 0.23,0.23 0 0 0 -0.25,-0.2 h -0.01 a 0.23,0.24 86.2 0 0 -0.22,0.24 c 0.49,16.56 5.43,34.27 21.1,42.95 q -9.57,9.69 -19.15,19.24 -2.5,2.49 -2.28,8.08 0.53,13.12 2.03,26.82 0.09,0.81 -0.17,2.64 a 2.34,2.34 0 0 0 0,0.68 c 1.65,13.21 2.03,24.07 4.02,36.85 q 0.47,2.99 1.33,14.55 c 0.76,10.01 -1,22.97 -0.47,32.88 0.44,8.08 10.89,14.41 10.69,24.57 a 0.61,0.61 0 0 1 -0.61,0.6 h -49.34 a 0.79,0.79 0 0 1 -0.79,-0.81 q 0.07,-3.7 0.3,-4.87 2.57,-12.82 3.06,-24.64 0.18,-4.27 -0.4,-6.69 a 2.17,2.17 0 0 0 -2.31,-1.67 c -7.04,0.6 -10.33,5.14 -12.16,11.42 -1.7,5.8 -2.87,9.47 -0.42,14.05 2.66,5 4.53,9.05 4.24,14.03 a 2.06,2.07 1.5 0 1 -2.05,1.95 l -35.57,0.26 a 4.32,3.99 47.3 0 1 -0.86,-0.07 l -15.45,-2.63 a 0.42,0.42 0 0 1 -0.34,-0.5 c 0.54,-2.76 0.99,-8.6 2.26,-12.26 0.88,-2.52 0.94,-4.91 1.53,-7.94 q 1.86,-9.57 3.42,-17.01 c 1.84,-8.82 2.73,-19.26 3.53,-26.01 a 3.44,3.49 34.7 0 0 -0.34,-1.95 q -5.01,-9.97 -7.88,-22.79 -0.77,-3.45 -3.24,-5.23 a 0.57,0.59 37.6 0 0 -0.79,0.11 c -2.92,3.57 -5.29,4.02 -9.69,4.51 a 11.36,10.96 29.9 0 0 -2.87,0.72 q -19.05,7.63 -24.35,8.95 -9.19,2.28 -20.73,3.66 a 1.76,1.76 0 0 0 -1.54,1.53 c -0.47,3.91 -0.94,8.48 -0.81,13.11 q 0.27,9.43 0.16,33.94 -0.01,3.82 0.47,5.43 a 5.46,5.54 18.9 0 0 0.8,1.66 c 3.65,5.18 9.44,10.9 9.88,18.18 a 0.75,0.75 0 0 1 -0.72,0.8 q -23.56,1.15 -46.99,0.46 -2.71,-0.08 -2.71,-3.04 0,-13.43 0.77,-27.24 c 0.44,-7.91 0.17,-15.1 -1.4,-21.94 a 0.39,0.39 0 0 0 -0.65,-0.19 c -3.25,3.2 -8.96,5.89 -11.5,9.86 q -3.5,5.46 -4.28,8.04 -2.55,8.43 -4.93,14.77 a 1.59,1.59 0 0 0 0.31,1.61 q 1.59,1.79 5.46,7.09 3.77,5.16 2.9,12.23 a 1.39,1.39 0 0 1 -1.2,1.21 c -12.2,1.64 -25.68,2.43 -37.94,-0.28 q -6.53,-1.45 -14.58,-1.26 a 1.34,1.34 0 0 1 -1.37,-1.37 q 0.05,-2.79 0.25,-4.04 1.48,-9.19 2.18,-16.46 c 1.6,-16.59 3.13,-31.03 4.12,-45.98 q 0.32,-4.84 -0.26,-7.57 c -0.54,-2.61 -1.03,-6.54 -2.14,-9.89 -2.68,-8.09 -4.91,-14.13 -6.26,-21.76 q -2.13,-12.11 -3.02,-17.69 -2.46,-15.32 -2.18,-31.23 6.04,10.77 10.99,21.32 12.38,26.39 24.87,53.17 5.9,12.65 6.72,25.1 0.37,5.75 -0.46,8.65 -6.72,23.57 -15.64,46.88 a 0.45,0.45 0 0 0 0.42,0.61 h 33.14 a 0.6,0.6 0 0 0 0.6,-0.63 l -0.23,-5.61 a 1.6,1.65 24.2 0 0 -0.34,-0.94 l -8.38,-10.88 a 1.92,1.91 33.5 0 1 -0.34,-1.64 l 5.15,-20.11 a 4.17,4.2 76.9 0 1 1.34,-2.14 q 16.56,-13.93 32.71,-28.34 4.06,-3.63 5.68,-6.32 c 6.04,-10.09 8.87,-24.26 4.86,-35.99 q -4.98,-14.56 -14.43,-28.67 a 0.37,0.38 77.4 0 1 0.37,-0.58 q 18.55,2.8 39.71,2.2 8.86,-0.25 18.45,-5.72 c 13.24,-7.55 24.17,-15.1 30.54,-26.73 a 0.9,0.89 25.9 0 0 -0.44,-1.25 q -23.39,-10.03 -35.88,-32.3 l -2.81,-5.75 a 0.78,0.78 0 0 0 -1.15,-0.29 q -8.89,6.4 -19.77,6.17 l -2.86,-0.26 a 0.57,0.57 0 0 1 -0.45,-0.85 l 4.44,-7.92 3.91,-6.49 a 0.22,0.22 0 0 0 -0.32,-0.28 c -9.41,7.65 -19.32,13.54 -32.01,11.06 l -4.67,-0.97 q 6.61,-10.31 14.77,-18.87 2.35,-2.47 7.08,-7.56 a 0.05,0.06 39.3 0 0 0,-0.08 q -0.01,-0.01 -0.04,-0.02 a 0.14,0.15 37.8 0 0 -0.17,0.03 q -4.68,4.54 -15.09,12.42 -13.89,10.52 -30.54,5.59 l -5.38,-2.67 a 0.66,0.67 36.4 0 1 -0.16,-1.08 l 9.98,-9.49 q 9.72,-8.53 20.61,-15.96 a 0.03,0.04 49.5 0 0 0.02,-0.06 q -0.04,-0.01 -0.08,-0.02 a 0.58,0.37 22.4 0 0 -0.33,0.06 c -8.92,5.43 -17.89,10.72 -27.32,14.38 -8.58,3.32 -19.04,1.22 -27.16,-3.02 l -4.99,-2.99 a 0.54,0.54 0 0 0 -0.72,0.15 l -1.25,1.78 q -1.68,-1.53 0,-3 2.04,-1.77 5.42,-3.62 c 6.23,-3.36 12.98,-7.67 18.22,-10.37 q 26.06,-13.44 29.12,-14.02 a 0.17,0.17 0 0 0 0.11,-0.27 l -0.16,-0.21 a 0.18,0.19 58.5 0 0 -0.23,-0.05 q -18.8,9.12 -38.89,14.73 c -4.85,1.25 -8.57,2.61 -14.08,2.02 q -16.44,-1.78 -28.36,-13.21 a 0.97,1 24.1 0 1 -0.3,-0.82 l 0.12,-1 q 18.5,-5.12 36.48,-11.82 a 0.17,0.16 72.1 0 0 0.1,-0.21 0.16,0.16 0 0 0 -0.2,-0.11 l -7.45,2.18 q -8.82,0.38 -17.31,0.71 -18.310001,0.72 -33.380001,-10.26 -1.21,-0.89 -1.98,-2.12 -0.55,-0.89 0.06,-1.47 0.54,-0.52 1.55,-0.67 c 8.52,6.03 19.37,11.27 29.410001,12.3 q 7.9,0.8 16.01,-0.02 11,-1.13 15.11,-2.15 15.74,-3.92 35.42,-8.16 a 1,0.98 1.3 0 0 0.74,-0.69 q 0.25,-0.9 0.18,-2.13 a 1.25,1.23 68.5 0 1 0.44,-1.03 q 1.03,-0.87 3.05,-1.63 a 0.56,0.56 0 0 0 0.04,-1.03 c -5.31,-2.38 -9.21,-4.16 -11.02,-10.29 a 0.79,0.79 0 0 0 -0.8,-0.57 q -24.37,1.08 -48.61,0.46 -1.01,-0.38 -1.19,-1.06 a 0.51,0.52 79.9 0 1 0.45,-0.64 l 3.65,-0.38 q 22.43,0.55 45.78,-0.75 a 0.66,0.67 5.5 0 0 0.6,-0.5 l 0.3,-1.19 a 1.22,1.22 0 0 1 0.83,-0.87 l 2.83,-0.89 a 0.42,0.42 0 0 0 0.09,-0.76 q -7.53,-4.48 -11.03,-12.76 a 1.03,1.04 82.4 0 0 -0.81,-0.61 q -28.46,-3.75 -56.25,-10.42 -1.51,-1.1 -2.26,-2.75 4.98,1.65 7.23,2.1 24.94,5.07 50.85,9.11 a 0.42,0.42 0 0 0 0.45,-0.58 q -0.45,-1.06 -0.51,-1.95 a 0.64,0.64 0 0 1 0.77,-0.66 q 9.36,2.04 19.48,1.36 a 0.35,0.35 0 0 0 0.15,-0.66 q -20.22,-11.08 -38.12,-21.290005 c -6.05,-3.46 -14.68,-9.07 -18.96,-11.78 a 0.19,0.19 0 0 1 0.16,-0.34 q 23.28,6.82 47.19,13.34 14.09,3.850005 26.32,8.170005 c 13.35,4.73 26.2,10.91 34.63,23.1 q 3.99,5.76 5.19,8.09 7.93,15.39 17.49,28.55 a 0.02061553,0.02061553 0 0 0 0.04,-0.01 q 0,-0.03 0.01,-0.05 a 0.37,0.16 46.5 0 0 -0.07,-0.19 q -8.81,-14.36 -18.15,-32.87 c -8.78,-17.39 -23.92,-25.41 -41.75,-31.01 q -10.22,-3.22 -23.27,-6.720005 -2.37,-4.75 -6.47,-8.51 -3.91,-3.59 -4.76,-4.69 c -2.9,-3.76 -6.03,-7.48 -7.9,-11.94 q -1.07,-2.54 -3.18,-6.82 -0.22,-0.45 -0.06,-1.12 a 0.62,0.61 23.1 0 1 0.93,-0.37 q 3.36,2.19 6.91,3.95 14.54,7.18 22,10.88 c 6.06,3 13.88,5.76 19.83,8.34 q 0.33,0.15 0.49,0.14 a 0.36,0.36 0 0 0 0.17,-0.67 c -26.23,-14.76 -49.83,-32.81 -64.35,-59.5 q -6.79,-12.49 -11.52,-25.1599996 a 0.43,0.43 0 0 1 0.71,-0.44 z m 234.88,308.0000046 q -3.63,-0.66 -8.6,-2.81 -16.71,-7.19 -33.01,-18.51 -19.53,-13.57 -19.91,-13.8 -3.82,-2.35 -5.19,-3 a 1.19,1.19 0 0 0 -1.07,0.02 q -3.37,1.81 -5.21,5.33 a 1.9,1.91 57.3 0 0 -0.22,1 q 0.68,15.69 -0.71,26.29 -3.01,22.94 -4.68,38.27 -0.06,0.5 -0.21,4.59 a 6.48,6.55 37.7 0 0 0.24,1.96 q 1.61,5.66 4.13,14.47 1.73,6.08 5.05,13.03 4.75,9.96 10.17,22.74 a 4.07,4.03 40.9 0 1 0.2,2.62 l -11.04,43.16 a 0.57,0.57 0 0 0 0.55,0.71 h 39.37 a 0.81,0.81 0 0 0 0.81,-0.75 c 0.45,-5.35 -4.44,-12.1 -7.72,-16.98 q -1.1,-1.65 -0.43,-3.62 9.13,-26.58 10.37,-30.77 0.46,-1.55 4.47,-11 1.74,-4.1 3.94,-11.2 12.3,-39.84 17.01,-57.36 c 0.37,-1.38 1.99,-3.03 2.14,-3.71 a 0.57,0.57 0 0 0 -0.45,-0.68 z"
     id="path86" />
  <path
     fill="#8b8b8b"
     d="m 215.46034,64.588805 q -0.33,0.08 -0.6,0.47 -10.32,-5.23 -20.44,-10.85 -34.39,-19.11 -62.94,-46.0499996 15.29,13.6299996 22.97,19.2699996 28.92,21.21 61.01,37.16 z"
     id="path87" />
  <path
     fill="#ffffff"
     d="m 172.12034,97.018805 q 13.05,3.500005 23.27,6.720005 c 17.83,5.6 32.97,13.62 41.75,31.01 q 9.34,18.51 18.15,32.87 a 0.37,0.16 46.5 0 1 0.07,0.19 q -0.01,0.02 -0.01,0.05 a 0.02061553,0.02061553 0 0 1 -0.04,0.01 q -9.56,-13.16 -17.49,-28.55 -1.2,-2.33 -5.19,-8.09 c -8.43,-12.19 -21.28,-18.37 -34.63,-23.1 q -12.23,-4.32 -26.32,-8.170005 -23.91,-6.52 -47.19,-13.34 a 0.19,0.19 0 0 0 -0.16,0.34 c 4.28,2.71 12.91,8.32 18.96,11.78 q 17.9,10.210005 38.12,21.290005 a 0.35,0.35 0 0 1 -0.15,0.66 q -10.12,0.68 -19.48,-1.36 a 0.64,0.64 0 0 0 -0.77,0.66 q 0.06,0.89 0.51,1.95 a 0.42,0.42 0 0 1 -0.45,0.58 q -25.91,-4.04 -50.85,-9.11 -2.25,-0.45 -7.23,-2.1 -24.240001,-7.35 -42.690001,-17.730005 -25.23,-14.19 -44.44,-38.64 l -13.8800002,-20.21 -0.97,-2.18 a 0.25,0.25 0 0 1 0.37,-0.3 c 36.3200002,25.81 77.0400002,42.11 120.7000012,52.76 q 24.69,6.03 50.04,12.01 z"
     id="path88" />
  <path
     fill="#ffffff"
     d="m 215.46034,64.588805 c 3.93,1.97 7.98,4.14 11.87,5.85 q 22.45,9.85 41.89,22.24 c 7.57,4.83 15.1,10.940005 18.9,19.020005 q 4.08,8.69 5.74,18.24 -4.49,-11.75 -5.92,-14.74 -3.92,-8.15 -12.64,-14.88 c -18.52,-14.290005 -40.82,-24.650005 -60.44,-35.260005 q 0.27,-0.39 0.6,-0.47 z"
     id="path90" />
  <path
     fill="#000000"
     d="m 553.60034,144.79881 c -1.56,3.05 -1.06,8.61 -0.75,12.2 a 0.37,0.37 0 0 1 -0.72,0.14 l -4.1,-14.27 a 1.53,1.4 42.4 0 1 -0.05,-0.56 q 0.88,-9.74 6.52,-15.75 2.73,-2.91 10.3,-8.19 a 1.18,1.16 31.8 0 1 0.84,-0.19 l 8.93,1.53 a 0.29,0.29 0 0 1 0.24,0.34 l -0.04,0.27 a 0.23,0.22 1.5 0 1 -0.2,0.18 l -1.71,0.21 a 0.28004464,0.28004464 0 0 0 -0.01,0.56 q 1.11,0.18 2.63,-0.14 a 1.74,1.69 16.6 0 0 0.86,-0.45 c 1.63,-1.58 7.2,-6.13 2.96,-8.6 q -4.36,-2.54 -5.72,-3.51 c -3.16,-2.27 -3.88,-5.21 -5.02,-9.460005 -1.03,-3.86 -3.66,-5.49 -7.21,-2.3 q -8,7.190005 -10.19,9.580005 -7.2,7.85 -15.78,17.71 -1.98,2.28 -2.51,4.53 -1.97,8.43 -3.56,13.97 c -0.97,3.37 -0.72,5.53 -0.43,9.58 q 0.78,10.67 2.31,18.3 0.4,2.01 1.44,3.58 a 0.38,0.38 0 0 0 0.68,-0.3 l -1.89,-7.5 a 0.39,0.39 0 0 1 0.7,-0.31 q 3.25,4.95 8.06,10.74 c 4.53,5.46 8.29,12.52 11.24,20.71 2.72,7.56 4.99,13.81 7.97,20.16 a 4.01,3.92 34.3 0 1 0.37,1.84 q -0.04,0.88 -0.55,16.28 -0.24,7.17 2.77,13.28 a 0.29,0.29 0 0 1 -0.39,0.38 l -10.83,-5.66 a 0.5,0.5 0 0 0 -0.56,0.06 l -7.47,6.37 a 1.12,1.13 62.3 0 0 -0.36,1.14 l 3.99,15.85 a 0.51,0.51 0 0 1 -0.88,0.46 l -9.92,-11.64 a 1.28,1.29 69 0 0 -1.02,-0.45 l -13.21,0.55 a 0.72,0.71 87.6 0 0 -0.68,0.75 l 0.68,16.47 a 0.29,0.29 0 0 1 -0.56,0.13 q -2.44,-5.43 -4.42,-11.86 -7.5,-24.32 -15.49,-49.42 c -1.36,-4.27 -2.49,-8.86 -3.84,-13.18 a 4.63,4.61 14.3 0 0 -1.1,-1.84 q -13.72,-13.96 -26,-28.36 -3.06,-3.61 -10.34,-14.09 4.61,1.64 7.95,6.15 3.8,5.13 3.94,5.3 6.17,7.2 13.82,16.27 1.61,1.9 3.85,4.08 c 5.16,5.02 9.75,11.25 11.49,16.72 q 6.28,19.67 11.5,34.35 c 2.11,5.92 3.17,12.45 5.66,18.09 a 0.2,0.2 0 0 0 0.26,0.1 c 5.85,-2.48 9.46,-2.11 17.43,-2.24 1.82,-0.03 4.33,-1.46 5.77,-3.15 q 2.15,-2.5 6.66,-6.92 c 1.13,-1.11 2.06,-4.04 2.26,-5.83 q 1.49,-13.28 0.78,-19.77 -0.52,-4.69 -3.89,-13.73 -4.96,-13.3 -12.62,-25.09 -0.92,-1.41 -4.08,-3.73 a 1.2,1.2 0 0 1 -0.48,-0.83 c -0.64,-5.6 -2.5,-11.99 -3.02,-18.45 -0.58,-7.19 -1.01,-11.66 1.01,-18.15 q 1.79,-5.74 3.39,-11.27 a 2.18,2.22 72 0 1 0.38,-0.73 q 7.91,-10.27 22.73,-24.94 c 3.44,-3.400005 10.81,-12.100005 15.09,-3.690005 q 1.27,2.49 3.8,7.380005 c 2.58,4.97 9.67,4.38 8.66,12.95 a 1.48,1.5 73.1 0 1 -0.52,0.96 q -3.19,2.67 -4.53,3.17 -7.27,2.74 -8.53,3.46 -11.74,6.74 -14.74,19.72 z"
     id="path91" />
  <path
     fill="#ffffff"
     d="m 553.60034,144.79881 0.65,4.4 c 2.99,21.9 14.55,39.33 26.72,59.88 2.47,4.18 2.97,6.7 4.01,12.06 q 2.84,14.76 3.47,25.81 0.2,3.61 -0.65,6.73 l -0.7,-9.17 a 0.24046829,0.24046829 0 0 0 -0.48,-0.03 c -1.07,5.2 -2.49,9.04 -5.76,14.16 q -7.76,12.13 -15.05,21.64 -1.77,2.3 -5.65,3.88 c -11.72,4.75 -23.36,9.58 -35.23,12.4 q -4.89,1.16 -11.5,0.65 -14.3,-1.12 -25.67,-4.02 c -10.31,-2.63 -18.03,0.95 -27.79,4.89 a 2.44,2.44 0 0 1 -2.96,-0.94 q -0.84,-1.3 -1.84,-3.7 -7.93,-18.98 -10.09,-39.82 a 0.33,0.34 77.2 0 0 -0.45,-0.28 q -8.31,3.11 -17.96,5.4 -5.76,1.36 -9.65,-2.04 -3.15,-2.76 -7.21,-7.87 -18.41,-23.19 -30.95,-39.95 a 3.14,3.17 37.1 0 1 -0.41,-3.04 c 3.04,-7.78 7.91,-15.27 12.95,-22.41 a 0.74,0.74 0 0 0 -0.12,-0.98 q -1.24,-1.07 -2.56,-2.05 -8.42,-6.26 -32.55,-23.68 c -4.96,-3.59 -11.67,-8.16 -17.79,-11.24 a 8.43,8.2 64.2 0 0 -1.92,-0.7 q -15.38,-3.51 -30.31,2.97 a 0.36,0.36 0 0 0 0.14,0.69 q 13.95,0.1 27.11,4.25 3.94,1.25 6.87,4.5 6.67,7.38 17.77,18.24 c 5.17,5.05 9.23,10.14 12.71,15.72 a 2.83,2.8 32.9 0 1 0.41,1.86 q -0.93,7.17 -0.63,15.01 0.11,2.75 2.87,14.71 2.06,8.92 2.61,18.22 0.15,2.55 -0.82,11.52 -0.77,7.15 -1.55,11.46 -4.66,25.85 -5.67,33.26 -0.29,2.14 -1.1,4.79 a 1.85,1.86 16 0 1 -2.24,1.25 c -2.18,-0.58 -5.58,-1.79 -7.61,-2.75 q -20.02,-9.45 -37.58,-23.68 c -6.51,-5.28 -11.5,-10.68 -17.54,-16.75 q -2.24,-2.25 -4.59,-3.74 -7.75,-4.89 -15.73,-9.99 c -8.76,-5.6 -13.04,-14.93 -18.8,-22.71 -3.69,-4.98 -7.91,-7.33 -14.5,-12 q -1.27,-0.89 -3.7,-3.59 c -7.12,-7.94 -2.73,-13.93 3.39,-21.41 q 27.27,-33.29 29.61,-36.05 6.34,-7.49 17.18,-17.68 l 15.19,-11.59 a 1.85,1.81 28.8 0 1 1.32,-0.37 q 28.58,3.07 45.86,5.68 17.65,2.66 22.55,4.09 c 3.08,0.91 6.91,6.89 8.29,9.87 a 1.02,1.02 0 0 0 1.05,0.59 q 22.78,-2.83 42.74,-5.14 2.62,-0.3 5.16,0.93 c 6.75,3.28 12.48,5.18 15.72,9.29 q 3.64,4.61 6.94,8.39 7.28,10.48 10.34,14.09 12.28,14.4 26,28.36 a 4.63,4.61 14.3 0 1 1.1,1.84 c 1.35,4.32 2.48,8.91 3.84,13.18 q 7.99,25.1 15.49,49.42 1.98,6.43 4.42,11.86 a 0.29,0.29 0 0 0 0.56,-0.13 l -0.68,-16.47 a 0.72,0.71 87.6 0 1 0.68,-0.75 l 13.21,-0.55 a 1.28,1.29 69 0 1 1.02,0.45 l 9.92,11.64 a 0.51,0.51 0 0 0 0.88,-0.46 l -3.99,-15.85 a 1.12,1.13 62.3 0 1 0.36,-1.14 l 7.47,-6.37 a 0.5,0.5 0 0 1 0.56,-0.06 l 10.83,5.66 a 0.29,0.29 0 0 0 0.39,-0.38 q -3.01,-6.11 -2.77,-13.28 0.51,-15.4 0.55,-16.28 a 4.01,3.92 34.3 0 0 -0.37,-1.84 c -2.98,-6.35 -5.25,-12.6 -7.97,-20.16 -2.95,-8.19 -6.71,-15.25 -11.24,-20.71 q -4.81,-5.79 -8.06,-10.74 a 0.39,0.39 0 0 0 -0.7,0.31 l 1.89,7.5 a 0.38,0.38 0 0 1 -0.68,0.3 q -1.04,-1.57 -1.44,-3.58 -1.53,-7.63 -2.31,-18.3 c -0.29,-4.05 -0.54,-6.21 0.43,-9.58 q 1.59,-5.54 3.56,-13.97 0.53,-2.25 2.51,-4.53 8.58,-9.86 15.78,-17.71 2.19,-2.39 10.19,-9.580005 c 3.55,-3.19 6.18,-1.56 7.21,2.3 1.14,4.250005 1.86,7.190005 5.02,9.460005 q 1.36,0.97 5.72,3.51 c 4.24,2.47 -1.33,7.02 -2.96,8.6 a 1.74,1.69 16.6 0 1 -0.86,0.45 q -1.52,0.32 -2.63,0.14 a 0.28004464,0.28004464 0 0 1 0.01,-0.56 l 1.71,-0.21 a 0.23,0.22 1.5 0 0 0.2,-0.18 l 0.04,-0.27 a 0.29,0.29 0 0 0 -0.24,-0.34 l -8.93,-1.53 a 1.18,1.16 31.8 0 0 -0.84,0.19 q -7.57,5.28 -10.3,8.19 -5.64,6.01 -6.52,15.75 a 1.53,1.4 42.4 0 0 0.05,0.56 l 4.1,14.27 a 0.37,0.37 0 0 0 0.72,-0.14 c -0.31,-3.59 -0.81,-9.15 0.75,-12.2 z m 11.72,-42.54 a 0.71,0.71 0 0 0 -1.19,-0.24 c -1.71,1.84 -4.39,5.74 -2.26,8.03 q 3.72,4.01 9.26,5.19 a 1.5,1.5 0 0 0 1.27,-2.62 c -2.44,-2.03 -4.55,-2.63 -6.21,-6.07 -0.59,-1.23 -0.46,-3.19 -0.87,-4.29 z m -106.1,120.93 -3.3,-10.56 a 1.47,1.58 12.3 0 0 -0.35,-0.59 c -6.24,-6.59 -12.69,-2.74 -18.97,1 a 0.34,0.34 0 0 0 0.01,0.59 q 1.65,0.95 3.89,2.98 c 4.23,3.82 10.17,4.44 15.37,5.45 a 5.13,5.13 0 0 1 1.83,0.76 l 1.07,0.71 a 0.3,0.3 0 0 0 0.45,-0.34 z"
     id="path92" />
  <path
     fill="#ffffff"
     d="m 105.25034,114.05881 q 27.79,6.67 56.25,10.42 a 1.03,1.04 82.4 0 1 0.81,0.61 q 3.5,8.28 11.03,12.76 a 0.42,0.42 0 0 1 -0.09,0.76 l -2.83,0.89 a 1.22,1.22 0 0 0 -0.83,0.87 l -0.3,1.19 a 0.66,0.67 5.5 0 1 -0.6,0.5 q -23.35,1.3 -45.78,0.75 -11.96,0.09 -25.530001,-3.04 -37.3,-8.6 -58.88,-40.170005 -0.8,-1.17 -1.09,-2.35 a 0.38,0.38 0 0 1 0.48,-0.46 q 6.93,2.12 29.97,9.010005 11.27,3.37 37.390001,8.26 z"
     id="path93" />
  <path
     fill="#000000"
     d="m 565.32034,102.25881 c 0.41,1.1 0.28,3.06 0.87,4.29 1.66,3.44 3.77,4.04 6.21,6.07 a 1.5,1.5 0 0 1 -1.27,2.62 q -5.54,-1.18 -9.26,-5.19 c -2.13,-2.29 0.55,-6.19 2.26,-8.03 a 0.71,0.71 0 0 1 1.19,0.24 z"
     id="path94" />
  <path
     fill="#ffffff"
     d="m 120.00034,144.88881 q 24.24,0.62 48.61,-0.46 a 0.79,0.79 0 0 1 0.8,0.57 c 1.81,6.13 5.71,7.91 11.02,10.29 a 0.56,0.56 0 0 1 -0.04,1.03 q -2.02,0.76 -3.05,1.63 a 1.25,1.23 68.5 0 0 -0.44,1.03 q 0.07,1.23 -0.18,2.13 a 1,0.98 1.3 0 1 -0.74,0.69 q -19.68,4.24 -35.42,8.16 -4.11,1.02 -15.11,2.15 -8.11,0.82 -16.01,0.02 c -10.040001,-1.03 -20.890001,-6.27 -29.410001,-12.3 q -9.01,-6.12 -15.05,-15.21 a 0.72,0.72 0 0 1 0.62,-1.11 z"
     id="path95" />
  <path
     fill="#000000"
     d="m 588.45034,246.94881 q -0.63,-11.05 -3.47,-25.81 c -1.04,-5.36 -1.54,-7.88 -4.01,-12.06 -12.17,-20.55 -23.73,-37.98 -26.72,-59.88 q 1.98,2.36 2.53,4.17 c 2.26,7.42 4.7,16.69 7.98,22.84 q 1.53,2.87 4.11,8.52 1.34,2.93 4.78,8.05 7.97,11.85 11.05,16.91 c 2.74,4.54 3.46,9.71 4.76,16.64 1.4,7.55 0.71,14.59 0.83,23.51 a 0.47,0.46 36.2 0 1 -0.91,0.14 z"
     id="path96" />
  <path
     fill="#8b8b8b"
     d="m 102.16034,183.59881 28.93,-9.96 7.45,-2.18 a 0.16,0.16 0 0 1 0.2,0.11 0.17,0.16 72.1 0 1 -0.1,0.21 q -17.98,6.7 -36.48,11.82 z"
     id="path97" />
  <path
     fill="#000000"
     d="m 459.22034,223.18881 a 0.3,0.3 0 0 1 -0.45,0.34 l -1.07,-0.71 a 5.13,5.13 0 0 0 -1.83,-0.76 c -5.2,-1.01 -11.14,-1.63 -15.37,-5.45 q -2.24,-2.03 -3.89,-2.98 a 0.34,0.34 0 0 1 -0.01,-0.59 c 6.28,-3.74 12.73,-7.59 18.97,-1 a 1.47,1.58 12.3 0 1 0.35,0.59 z"
     id="path100" />
  <path
     fill="#ffffff"
     d="m 283.53034,278.70881 c 0.48827,0.20927 0.69243,0.78926 0.44,1.25 -6.37,11.63 -17.3,19.18 -30.54,26.73 -6.39333,3.64667 -12.54333,5.55333 -18.45,5.72 -14.10667,0.4 -27.34333,-0.33333 -39.71,-2.2 -0.32837,-0.0451 -0.55798,0.31479 -0.37,0.58 6.3,9.40667 11.11,18.96333 14.43,28.67 4.01,11.73 1.18,25.9 -4.86,35.99 -1.08,1.79333 -2.97333,3.9 -5.68,6.32 -10.76667,9.60667 -21.67,19.05333 -32.71,28.34 -0.65732,0.55995 -1.12529,1.3073 -1.34,2.14 l -5.15,20.11 c -0.14467,0.56856 -0.0193,1.17318 0.34,1.64 l 8.38,10.88 c 0.20812,0.26681 0.32708,0.59571 0.34,0.94 l 0.23,5.61 c 0.0172,0.34302 -0.25655,0.63043 -0.6,0.63 h -33.14 c -0.31485,-4.2e-4 -0.53195,-0.31573 -0.42,-0.61 5.94667,-15.54 11.16,-31.16667 15.64,-46.88 0.55333,-1.93333 0.70667,-4.81667 0.46,-8.65 -0.54667,-8.3 -2.78667,-16.66667 -6.72,-25.1 -8.32667,-17.85333 -16.61667,-35.57667 -24.87,-53.17 -3.3,-7.03333 -6.96333,-14.14 -10.99,-21.32 l -0.93,-6.79 c -0.0391,-0.38362 -0.58557,-0.41625 -0.67,-0.04 -2.68667,9.68667 -4.05,14.61333 -4.09,14.78 -2.1,8.9 -3.510001,17.14 -4.180001,27.3 -0.42,6.30667 -0.79333,12.67333 -1.12,19.1 -0.11333,2.17333 0.08,4.12 0.58,5.84 -0.94,-0.52667 -2.45,0.27333 -4.53,2.4 l 1.71,-4.44 c 0.15862,-0.4166 0.23995,-0.85377 0.24,-1.29 0.02,-7.98 0.02,-12.15 0,-12.51 -0.41,-8.81 -1.14,-24.82 -0.65,-39.34 0.39,-11.84 2.69,-19.58 6.890001,-32.88 3.31333,-10.47333 6.84,-21.10667 10.58,-31.9 0.56,-1.62 1.49333,-3.11 2.8,-4.47 5.72,-5.97333 11.16,-12.19667 16.32,-18.67 l 1.25,-1.78 c 0.1636,-0.23096 0.47778,-0.29642 0.72,-0.15 0,0 134.77667,60.53333 150.37,67.22 z"
     id="path101" />
  <path
     fill="#ffffff"
     d="m 182.38944,240.94451 a 0.22,3.04 88.6 0 1 -3.0337,0.2942 0.22,3.04 88.6 0 1 -3.0445,-0.1456 0.22,3.04 88.6 0 1 3.0337,-0.2942 0.22,3.04 88.6 0 1 3.0445,0.1456 z"
     id="path105" />
  <path
     fill="#ffffff"
     d="m 407.05034,286.38881 q -3.09,-0.32 -5.78,-1.54 c -15.67,-8.68 -20.61,-26.39 -21.1,-42.95 a 0.23,0.24 86.2 0 1 0.22,-0.24 h 0.01 a 0.23,0.23 0 0 1 0.25,0.2 c 1.18,8.91 2.89,20.07 8.15,28.97 q 5.62,9.5 13.93,13.32 3.01,1.38 4.32,2.24 z"
     id="path106" />
  <path
     fill="#ffffff"
     d="m 366.81034,316.83881 c -0.15,0.68 -1.77,2.33 -2.14,3.71 q -4.71,17.52 -17.01,57.36 -2.2,7.1 -3.94,11.2 -4.01,9.45 -4.47,11 -1.24,4.19 -10.37,30.77 -0.67,1.97 0.43,3.62 c 3.28,4.88 8.17,11.63 7.72,16.98 a 0.81,0.81 0 0 1 -0.81,0.75 h -39.37 a 0.57,0.57 0 0 1 -0.55,-0.71 l 11.04,-43.16 a 4.07,4.03 40.9 0 0 -0.2,-2.62 q -5.42,-12.78 -10.17,-22.74 -3.32,-6.95 -5.05,-13.03 -2.52,-8.81 -4.13,-14.47 a 6.48,6.55 37.7 0 1 -0.24,-1.96 q 0.15,-4.09 0.21,-4.59 1.67,-15.33 4.68,-38.27 1.39,-10.6 0.71,-26.29 a 1.9,1.91 57.3 0 1 0.22,-1 q 1.84,-3.52 5.21,-5.33 a 1.19,1.19 0 0 1 1.07,-0.02 q 1.37,0.65 5.19,3 0.38,0.23 19.91,13.8 16.3,11.32 33.01,18.51 4.97,2.15 8.6,2.81 a 0.57,0.57 0 0 1 0.45,0.68 z"
     id="path107" />
  <path
     fill="#ffffff"
     d="m 499.69034,307.26881 c 15.43,10.42 35.18,14.26 53.56,13.26 q 12.38,-0.38 24.26,-4.09 1.13,-0.53 2.13,-0.47 a 0.41,0.41 0 0 1 0.35,0.6 q -0.2,0.41 -0.78,0.82 -7.69,5.44 -13.22,7.83 c -15.11,6.54 -33.23,8.39 -49.85,4.96 -9.69,-2 -20.02,-4.83 -28.77,-10.09 q -12.02,-7.23 -21.52,-17.88 a 0.44,0.45 58.1 0 1 0.17,-0.7 q 10.25,-4.2 20.93,-4.05 c 2.38,0.03 3.21,0.06 4.86,2.05 q 3.55,4.31 7.88,7.76 z"
     id="path108" />
  <path
     fill="#000000"
     d="m 577.51034,316.43881 q -11.88,3.71 -24.26,4.09 l -6.78,-0.22 a 0.4,0.4 0 0 1 -0.39,-0.4 v -0.3 a 0.67,0.66 89.1 0 1 0.64,-0.67 q 12.61,-0.49 25.23,-3.03 1.94,-0.39 5.56,0.53 z"
     id="path109" />
  <path
     fill="#000000"
     d="m 97.830339,356.51881 q 5.080001,7.3 4.050001,15.62 -0.25,1.99 -1.970001,7.99 a 1.32,1.31 77.9 0 1 -0.42,0.65 q -0.57,0.51 -0.86,0.22 a 1.2,1.44 19.6 0 0 -2.11,1.24 q -0.04,3.05 -0.76,5.07 a 2.12,2.16 79.1 0 1 -0.62,0.9 l -1.97,1.68 a 3.74,3.89 80.7 0 0 -1.02,1.36 l -2.06,4.71 a 0.61,0.61 0 0 1 -1.17,-0.23 q -0.19,-6.32 -1.56,-18.8 -1.21,-10.94 5.94,-18.01 3.12,-3.19 4.53,-2.4 z"
     id="path110" />
</svg>
